<mxfile host="app.diagrams.net" modified="2023-06-03T13:15:46.189Z" agent="Mozilla/5.0 (X11; Linux x86_64) AppleWebKit/537.36 (KHTML, like Gecko) Chrome/110.0.0.0 Safari/537.36" etag="eH59UuYBcQVezN9u2pZX" version="21.3.7" type="device">
  <diagram name="Страница 1" id="NsLbGaJI-xlxrg92xAiA">
    <mxGraphModel dx="1956" dy="1182" grid="1" gridSize="10" guides="1" tooltips="1" connect="1" arrows="1" fold="1" page="1" pageScale="1" pageWidth="1100" pageHeight="1000" math="1" shadow="0">
      <root>
        <mxCell id="0" />
        <mxCell id="1" parent="0" />
        <mxCell id="VNTb45fbrUXkGTs7Yfck-1" style="edgeStyle=orthogonalEdgeStyle;rounded=0;orthogonalLoop=1;jettySize=auto;html=1;exitX=0.5;exitY=1;exitDx=0;exitDy=0;entryX=0.5;entryY=0;entryDx=0;entryDy=0;" edge="1" parent="1" source="VNTb45fbrUXkGTs7Yfck-2" target="VNTb45fbrUXkGTs7Yfck-6">
          <mxGeometry relative="1" as="geometry" />
        </mxCell>
        <mxCell id="VNTb45fbrUXkGTs7Yfck-2" value="&lt;font style=&quot;font-size: 16px;&quot;&gt;Начало&lt;/font&gt;" style="rounded=1;whiteSpace=wrap;html=1;arcSize=50;fontSize=14;fontFamily=Times New Roman;" vertex="1" parent="1">
          <mxGeometry x="235" y="28" width="190" height="56.75" as="geometry" />
        </mxCell>
        <mxCell id="VNTb45fbrUXkGTs7Yfck-3" value="&lt;font style=&quot;font-size: 16px;&quot;&gt;Конец&lt;/font&gt;" style="rounded=1;whiteSpace=wrap;html=1;arcSize=50;fontSize=14;fontFamily=Times New Roman;" vertex="1" parent="1">
          <mxGeometry x="217.25" y="916" width="190" height="56.75" as="geometry" />
        </mxCell>
        <mxCell id="VNTb45fbrUXkGTs7Yfck-5" style="edgeStyle=orthogonalEdgeStyle;rounded=0;orthogonalLoop=1;jettySize=auto;html=1;exitX=0;exitY=0.5;exitDx=0;exitDy=0;entryX=0.5;entryY=0;entryDx=0;entryDy=0;" edge="1" parent="1" source="VNTb45fbrUXkGTs7Yfck-6" target="VNTb45fbrUXkGTs7Yfck-23">
          <mxGeometry relative="1" as="geometry" />
        </mxCell>
        <mxCell id="VNTb45fbrUXkGTs7Yfck-60" style="edgeStyle=orthogonalEdgeStyle;rounded=0;orthogonalLoop=1;jettySize=auto;html=1;exitX=1;exitY=0.5;exitDx=0;exitDy=0;entryX=0.5;entryY=0;entryDx=0;entryDy=0;" edge="1" parent="1" source="VNTb45fbrUXkGTs7Yfck-6" target="VNTb45fbrUXkGTs7Yfck-8">
          <mxGeometry relative="1" as="geometry">
            <Array as="points">
              <mxPoint x="476" y="164" />
              <mxPoint x="476" y="706" />
              <mxPoint x="314" y="706" />
            </Array>
          </mxGeometry>
        </mxCell>
        <mxCell id="VNTb45fbrUXkGTs7Yfck-6" value="&lt;font style=&quot;font-size: 16px;&quot;&gt;Страница &lt;br&gt;содержит одинаковые байты?&lt;/font&gt;" style="rhombus;whiteSpace=wrap;html=1;fontSize=14;fontFamily=Times New Roman;" vertex="1" parent="1">
          <mxGeometry x="233" y="114.87" width="200" height="97.5" as="geometry" />
        </mxCell>
        <mxCell id="VNTb45fbrUXkGTs7Yfck-7" style="edgeStyle=orthogonalEdgeStyle;rounded=0;orthogonalLoop=1;jettySize=auto;html=1;exitX=0.5;exitY=1;exitDx=0;exitDy=0;entryX=0.5;entryY=0;entryDx=0;entryDy=0;" edge="1" parent="1" source="VNTb45fbrUXkGTs7Yfck-8" target="VNTb45fbrUXkGTs7Yfck-10">
          <mxGeometry relative="1" as="geometry" />
        </mxCell>
        <mxCell id="VNTb45fbrUXkGTs7Yfck-8" value="&lt;span style=&quot;font-size: 16px;&quot;&gt;Освободить ресурсы&lt;/span&gt;" style="shape=process;whiteSpace=wrap;html=1;backgroundOutline=1;fontSize=14;size=0;fontFamily=Times New Roman;" vertex="1" parent="1">
          <mxGeometry x="216.75" y="726" width="193.5" height="65.5" as="geometry" />
        </mxCell>
        <mxCell id="VNTb45fbrUXkGTs7Yfck-9" style="edgeStyle=orthogonalEdgeStyle;rounded=0;orthogonalLoop=1;jettySize=auto;html=1;exitX=0.5;exitY=1;exitDx=0;exitDy=0;entryX=0.5;entryY=0;entryDx=0;entryDy=0;" edge="1" parent="1" source="VNTb45fbrUXkGTs7Yfck-10" target="VNTb45fbrUXkGTs7Yfck-3">
          <mxGeometry relative="1" as="geometry" />
        </mxCell>
        <mxCell id="VNTb45fbrUXkGTs7Yfck-10" value="&lt;span style=&quot;font-size: 16px;&quot;&gt;Обновить статистику&lt;/span&gt;" style="shape=process;whiteSpace=wrap;html=1;backgroundOutline=1;fontSize=14;size=0;fontFamily=Times New Roman;" vertex="1" parent="1">
          <mxGeometry x="216.75" y="826" width="193.5" height="65.5" as="geometry" />
        </mxCell>
        <mxCell id="VNTb45fbrUXkGTs7Yfck-59" style="edgeStyle=orthogonalEdgeStyle;rounded=0;orthogonalLoop=1;jettySize=auto;html=1;exitX=0.5;exitY=1;exitDx=0;exitDy=0;entryX=0.5;entryY=0;entryDx=0;entryDy=0;" edge="1" parent="1" source="VNTb45fbrUXkGTs7Yfck-12" target="VNTb45fbrUXkGTs7Yfck-8">
          <mxGeometry relative="1" as="geometry">
            <Array as="points">
              <mxPoint x="188" y="706" />
              <mxPoint x="314" y="706" />
            </Array>
          </mxGeometry>
        </mxCell>
        <mxCell id="VNTb45fbrUXkGTs7Yfck-12" value="&lt;span style=&quot;font-size: 16px;&quot;&gt;Скопировать данные&lt;/span&gt;" style="shape=process;whiteSpace=wrap;html=1;backgroundOutline=1;fontSize=14;size=0;fontFamily=Times New Roman;" vertex="1" parent="1">
          <mxGeometry x="91.25" y="616.12" width="193.5" height="65.5" as="geometry" />
        </mxCell>
        <mxCell id="VNTb45fbrUXkGTs7Yfck-13" style="edgeStyle=orthogonalEdgeStyle;rounded=0;orthogonalLoop=1;jettySize=auto;html=1;exitX=0.5;exitY=1;exitDx=0;exitDy=0;entryX=0.5;entryY=0;entryDx=0;entryDy=0;" edge="1" parent="1" source="VNTb45fbrUXkGTs7Yfck-14" target="VNTb45fbrUXkGTs7Yfck-12">
          <mxGeometry relative="1" as="geometry" />
        </mxCell>
        <mxCell id="VNTb45fbrUXkGTs7Yfck-14" value="&lt;span style=&quot;font-size: 16px;&quot;&gt;Выделить память под новую страницу&lt;/span&gt;" style="shape=process;whiteSpace=wrap;html=1;backgroundOutline=1;fontSize=14;size=0;fontFamily=Times New Roman;" vertex="1" parent="1">
          <mxGeometry x="90" y="521.37" width="193.5" height="65.5" as="geometry" />
        </mxCell>
        <mxCell id="VNTb45fbrUXkGTs7Yfck-57" style="edgeStyle=orthogonalEdgeStyle;rounded=0;orthogonalLoop=1;jettySize=auto;html=1;exitX=0.5;exitY=1;exitDx=0;exitDy=0;entryX=0.5;entryY=0;entryDx=0;entryDy=0;" edge="1" parent="1" source="VNTb45fbrUXkGTs7Yfck-16" target="VNTb45fbrUXkGTs7Yfck-14">
          <mxGeometry relative="1" as="geometry">
            <Array as="points">
              <mxPoint x="332" y="496" />
              <mxPoint x="187" y="496" />
            </Array>
          </mxGeometry>
        </mxCell>
        <mxCell id="VNTb45fbrUXkGTs7Yfck-16" value="&lt;span style=&quot;font-size: 16px;&quot;&gt;Сжать данные страницы&lt;/span&gt;" style="shape=process;whiteSpace=wrap;html=1;backgroundOutline=1;fontSize=14;size=0;fontFamily=Times New Roman;" vertex="1" parent="1">
          <mxGeometry x="235" y="400.87" width="193.5" height="65.5" as="geometry" />
        </mxCell>
        <mxCell id="VNTb45fbrUXkGTs7Yfck-17" style="edgeStyle=orthogonalEdgeStyle;rounded=0;orthogonalLoop=1;jettySize=auto;html=1;exitX=1;exitY=0.5;exitDx=0;exitDy=0;entryX=0.5;entryY=0;entryDx=0;entryDy=0;" edge="1" parent="1" source="VNTb45fbrUXkGTs7Yfck-19" target="VNTb45fbrUXkGTs7Yfck-16">
          <mxGeometry relative="1" as="geometry" />
        </mxCell>
        <mxCell id="VNTb45fbrUXkGTs7Yfck-58" style="edgeStyle=orthogonalEdgeStyle;rounded=0;orthogonalLoop=1;jettySize=auto;html=1;exitX=0;exitY=0.5;exitDx=0;exitDy=0;entryX=0.5;entryY=0;entryDx=0;entryDy=0;" edge="1" parent="1" source="VNTb45fbrUXkGTs7Yfck-19" target="VNTb45fbrUXkGTs7Yfck-14">
          <mxGeometry relative="1" as="geometry">
            <mxPoint x="156" y="496" as="targetPoint" />
            <Array as="points">
              <mxPoint x="46" y="362" />
              <mxPoint x="46" y="496" />
              <mxPoint x="187" y="496" />
            </Array>
          </mxGeometry>
        </mxCell>
        <mxCell id="VNTb45fbrUXkGTs7Yfck-19" value="&lt;span style=&quot;font-size: 16px;&quot;&gt;Энтропия&lt;br&gt;меньше порогового значения?&lt;/span&gt;" style="rhombus;whiteSpace=wrap;html=1;fontSize=14;fontFamily=Times New Roman;" vertex="1" parent="1">
          <mxGeometry x="84.75" y="313.12" width="200" height="97.5" as="geometry" />
        </mxCell>
        <mxCell id="VNTb45fbrUXkGTs7Yfck-20" value="Да" style="text;html=1;strokeColor=none;fillColor=none;align=center;verticalAlign=middle;whiteSpace=wrap;rounded=0;fontFamily=Times New Roman;fontSize=16;" vertex="1" parent="1">
          <mxGeometry x="428.5" y="136" width="60" height="30" as="geometry" />
        </mxCell>
        <mxCell id="VNTb45fbrUXkGTs7Yfck-21" value="Да" style="text;html=1;strokeColor=none;fillColor=none;align=center;verticalAlign=middle;whiteSpace=wrap;rounded=0;fontFamily=Times New Roman;fontSize=16;" vertex="1" parent="1">
          <mxGeometry x="283.5" y="336" width="60" height="30" as="geometry" />
        </mxCell>
        <mxCell id="VNTb45fbrUXkGTs7Yfck-22" style="edgeStyle=orthogonalEdgeStyle;rounded=0;orthogonalLoop=1;jettySize=auto;html=1;exitX=0.5;exitY=1;exitDx=0;exitDy=0;entryX=0.5;entryY=0;entryDx=0;entryDy=0;" edge="1" parent="1" source="VNTb45fbrUXkGTs7Yfck-23" target="VNTb45fbrUXkGTs7Yfck-19">
          <mxGeometry relative="1" as="geometry" />
        </mxCell>
        <mxCell id="VNTb45fbrUXkGTs7Yfck-23" value="Вычислить информационную энтропию" style="shape=process;whiteSpace=wrap;html=1;backgroundOutline=1;fontFamily=Times New Roman;fontSize=16;" vertex="1" parent="1">
          <mxGeometry x="88.75" y="212.37" width="196" height="68" as="geometry" />
        </mxCell>
        <mxCell id="VNTb45fbrUXkGTs7Yfck-24" style="edgeStyle=orthogonalEdgeStyle;rounded=0;orthogonalLoop=1;jettySize=auto;html=1;exitX=0.5;exitY=1;exitDx=0;exitDy=0;entryX=0.5;entryY=0;entryDx=0;entryDy=0;" edge="1" parent="1" source="VNTb45fbrUXkGTs7Yfck-25" target="VNTb45fbrUXkGTs7Yfck-31">
          <mxGeometry relative="1" as="geometry" />
        </mxCell>
        <mxCell id="VNTb45fbrUXkGTs7Yfck-25" value="&lt;font style=&quot;font-size: 16px;&quot;&gt;Начало&lt;/font&gt;" style="rounded=1;whiteSpace=wrap;html=1;arcSize=50;fontSize=14;fontFamily=Times New Roman;" vertex="1" parent="1">
          <mxGeometry x="617.75" y="222.87" width="190" height="56.75" as="geometry" />
        </mxCell>
        <mxCell id="VNTb45fbrUXkGTs7Yfck-26" style="edgeStyle=orthogonalEdgeStyle;rounded=0;orthogonalLoop=1;jettySize=auto;html=1;exitX=0.5;exitY=1;exitDx=0;exitDy=0;entryX=0.5;entryY=0;entryDx=0;entryDy=0;" edge="1" parent="1" source="VNTb45fbrUXkGTs7Yfck-27" target="VNTb45fbrUXkGTs7Yfck-29">
          <mxGeometry relative="1" as="geometry" />
        </mxCell>
        <mxCell id="VNTb45fbrUXkGTs7Yfck-27" value="&lt;font style=&quot;font-size: 16px;&quot; face=&quot;Times New Roman&quot;&gt;Для каждого значения байта страницы&amp;nbsp; &amp;nbsp; &amp;nbsp; &amp;nbsp; &amp;nbsp;&amp;nbsp;&lt;/font&gt;" style="shape=loopLimit;whiteSpace=wrap;html=1;strokeWidth=1;" vertex="1" parent="1">
          <mxGeometry x="616.88" y="412.87" width="191.75" height="70" as="geometry" />
        </mxCell>
        <mxCell id="VNTb45fbrUXkGTs7Yfck-28" style="edgeStyle=orthogonalEdgeStyle;rounded=0;orthogonalLoop=1;jettySize=auto;html=1;exitX=0.5;exitY=1;exitDx=0;exitDy=0;entryX=0.5;entryY=1;entryDx=0;entryDy=0;" edge="1" parent="1" source="VNTb45fbrUXkGTs7Yfck-29" target="VNTb45fbrUXkGTs7Yfck-33">
          <mxGeometry relative="1" as="geometry" />
        </mxCell>
        <mxCell id="VNTb45fbrUXkGTs7Yfck-29" value="&lt;span style=&quot;font-size: 16px;&quot;&gt;&amp;nbsp; &amp;nbsp; &amp;nbsp; &amp;nbsp; &amp;nbsp; &amp;nbsp; &amp;nbsp; &amp;nbsp; &amp;nbsp; &amp;nbsp; &amp;nbsp; &amp;nbsp; &amp;nbsp; &amp;nbsp; &amp;nbsp; &amp;nbsp; &amp;nbsp; &amp;nbsp; &amp;nbsp; &amp;nbsp; &amp;nbsp;&lt;i&gt;++&lt;/i&gt;&lt;/span&gt;" style="shape=process;whiteSpace=wrap;html=1;backgroundOutline=1;fontSize=14;size=0;fontFamily=Times New Roman;" vertex="1" parent="1">
          <mxGeometry x="616" y="512.87" width="193.5" height="65.5" as="geometry" />
        </mxCell>
        <mxCell id="VNTb45fbrUXkGTs7Yfck-30" style="edgeStyle=orthogonalEdgeStyle;rounded=0;orthogonalLoop=1;jettySize=auto;html=1;exitX=0.5;exitY=1;exitDx=0;exitDy=0;entryX=0.5;entryY=0;entryDx=0;entryDy=0;" edge="1" parent="1" source="VNTb45fbrUXkGTs7Yfck-31" target="VNTb45fbrUXkGTs7Yfck-27">
          <mxGeometry relative="1" as="geometry" />
        </mxCell>
        <mxCell id="VNTb45fbrUXkGTs7Yfck-31" value="&lt;span style=&quot;font-size: 16px;&quot;&gt;Инициализировать массив частот байтов&lt;br&gt;&amp;nbsp; &amp;nbsp; &amp;nbsp; &amp;nbsp; &amp;nbsp; &amp;nbsp; &amp;nbsp; &amp;nbsp; &amp;nbsp; &amp;nbsp; &amp;nbsp; &amp;nbsp; &amp;nbsp; &amp;nbsp; &amp;nbsp; нулями&lt;/span&gt;" style="shape=process;whiteSpace=wrap;html=1;backgroundOutline=1;fontSize=14;size=0;fontFamily=Times New Roman;" vertex="1" parent="1">
          <mxGeometry x="616" y="312.87" width="193.5" height="65.5" as="geometry" />
        </mxCell>
        <mxCell id="VNTb45fbrUXkGTs7Yfck-32" style="edgeStyle=orthogonalEdgeStyle;rounded=0;orthogonalLoop=1;jettySize=auto;html=1;exitX=0.5;exitY=0;exitDx=0;exitDy=0;entryX=0.5;entryY=0;entryDx=0;entryDy=0;" edge="1" parent="1" source="VNTb45fbrUXkGTs7Yfck-33" target="VNTb45fbrUXkGTs7Yfck-45">
          <mxGeometry relative="1" as="geometry" />
        </mxCell>
        <mxCell id="VNTb45fbrUXkGTs7Yfck-33" value="" style="shape=loopLimit;whiteSpace=wrap;html=1;strokeWidth=1;direction=west;fontFamily=Times New Roman;fontSize=14;" vertex="1" parent="1">
          <mxGeometry x="617.75" y="612.87" width="190" height="70" as="geometry" />
        </mxCell>
        <mxCell id="VNTb45fbrUXkGTs7Yfck-34" style="edgeStyle=orthogonalEdgeStyle;rounded=0;orthogonalLoop=1;jettySize=auto;html=1;exitX=0.5;exitY=1;exitDx=0;exitDy=0;entryX=0.5;entryY=0;entryDx=0;entryDy=0;" edge="1" parent="1" source="VNTb45fbrUXkGTs7Yfck-35" target="VNTb45fbrUXkGTs7Yfck-37">
          <mxGeometry relative="1" as="geometry" />
        </mxCell>
        <mxCell id="VNTb45fbrUXkGTs7Yfck-35" value="&lt;font style=&quot;font-size: 16px;&quot; face=&quot;Times New Roman&quot;&gt;Для каждого&amp;nbsp; &amp;nbsp; &amp;nbsp;равного ненулевым значениям&lt;br&gt;&lt;br&gt;&lt;/font&gt;" style="shape=loopLimit;whiteSpace=wrap;html=1;strokeWidth=1;" vertex="1" parent="1">
          <mxGeometry x="859.26" y="276.62" width="191.75" height="70" as="geometry" />
        </mxCell>
        <mxCell id="VNTb45fbrUXkGTs7Yfck-36" style="edgeStyle=orthogonalEdgeStyle;rounded=0;orthogonalLoop=1;jettySize=auto;html=1;exitX=0.5;exitY=1;exitDx=0;exitDy=0;entryX=0.5;entryY=0;entryDx=0;entryDy=0;" edge="1" parent="1" source="VNTb45fbrUXkGTs7Yfck-37" target="VNTb45fbrUXkGTs7Yfck-41">
          <mxGeometry relative="1" as="geometry" />
        </mxCell>
        <mxCell id="VNTb45fbrUXkGTs7Yfck-37" value="&lt;span style=&quot;font-size: 16px;&quot;&gt;Найти наименьшее&amp;nbsp; &amp;nbsp;&amp;nbsp;&lt;br&gt;такое, что&lt;br&gt;&lt;br&gt;&lt;/span&gt;" style="shape=process;whiteSpace=wrap;html=1;backgroundOutline=1;fontSize=14;size=0;fontFamily=Times New Roman;" vertex="1" parent="1">
          <mxGeometry x="858.38" y="376.62" width="193.5" height="65.5" as="geometry" />
        </mxCell>
        <mxCell id="VNTb45fbrUXkGTs7Yfck-38" style="edgeStyle=orthogonalEdgeStyle;rounded=0;orthogonalLoop=1;jettySize=auto;html=1;exitX=0.5;exitY=0;exitDx=0;exitDy=0;entryX=0.5;entryY=0;entryDx=0;entryDy=0;" edge="1" parent="1" source="VNTb45fbrUXkGTs7Yfck-39" target="VNTb45fbrUXkGTs7Yfck-54">
          <mxGeometry relative="1" as="geometry" />
        </mxCell>
        <mxCell id="VNTb45fbrUXkGTs7Yfck-39" value="" style="shape=loopLimit;whiteSpace=wrap;html=1;strokeWidth=1;direction=west;fontFamily=Times New Roman;fontSize=14;" vertex="1" parent="1">
          <mxGeometry x="860.13" y="576.62" width="190" height="70" as="geometry" />
        </mxCell>
        <mxCell id="VNTb45fbrUXkGTs7Yfck-40" style="edgeStyle=orthogonalEdgeStyle;rounded=0;orthogonalLoop=1;jettySize=auto;html=1;exitX=0.5;exitY=1;exitDx=0;exitDy=0;entryX=0.5;entryY=1;entryDx=0;entryDy=0;" edge="1" parent="1" source="VNTb45fbrUXkGTs7Yfck-41" target="VNTb45fbrUXkGTs7Yfck-39">
          <mxGeometry relative="1" as="geometry" />
        </mxCell>
        <mxCell id="VNTb45fbrUXkGTs7Yfck-41" value="&lt;span style=&quot;font-size: 16px;&quot;&gt;Увеличить значение энтропии на&amp;nbsp;&lt;br&gt;&lt;br&gt;&lt;/span&gt;" style="shape=process;whiteSpace=wrap;html=1;backgroundOutline=1;fontSize=14;size=0;fontFamily=Times New Roman;" vertex="1" parent="1">
          <mxGeometry x="860.13" y="476.62" width="193.5" height="65.5" as="geometry" />
        </mxCell>
        <mxCell id="VNTb45fbrUXkGTs7Yfck-42" value="&lt;font face=&quot;Times New Roman&quot;&gt;&lt;span style=&quot;font-size: 16px;&quot;&gt;$$k \cdot (log_2N - j)$$&lt;br&gt;&lt;/span&gt;&lt;/font&gt;" style="text;html=1;strokeColor=none;fillColor=none;align=center;verticalAlign=middle;whiteSpace=wrap;rounded=0;" vertex="1" parent="1">
          <mxGeometry x="926.88" y="532.12" width="60" height="10" as="geometry" />
        </mxCell>
        <mxCell id="VNTb45fbrUXkGTs7Yfck-43" style="edgeStyle=orthogonalEdgeStyle;rounded=0;orthogonalLoop=1;jettySize=auto;html=1;exitX=0.5;exitY=1;exitDx=0;exitDy=0;" edge="1" parent="1" source="VNTb45fbrUXkGTs7Yfck-42" target="VNTb45fbrUXkGTs7Yfck-42">
          <mxGeometry relative="1" as="geometry" />
        </mxCell>
        <mxCell id="VNTb45fbrUXkGTs7Yfck-44" value="&lt;font style=&quot;font-size: 16px;&quot;&gt;Конец&lt;/font&gt;" style="rounded=1;whiteSpace=wrap;html=1;arcSize=50;fontSize=14;fontFamily=Times New Roman;" vertex="1" parent="1">
          <mxGeometry x="860.14" y="779.62" width="190" height="56.75" as="geometry" />
        </mxCell>
        <mxCell id="VNTb45fbrUXkGTs7Yfck-45" value="A" style="ellipse;whiteSpace=wrap;html=1;aspect=fixed;fontFamily=Times New Roman;fontSize=16;" vertex="1" parent="1">
          <mxGeometry x="672.76" y="715.87" width="80" height="80" as="geometry" />
        </mxCell>
        <mxCell id="VNTb45fbrUXkGTs7Yfck-46" style="edgeStyle=orthogonalEdgeStyle;rounded=0;orthogonalLoop=1;jettySize=auto;html=1;exitX=0.5;exitY=1;exitDx=0;exitDy=0;entryX=0.5;entryY=0;entryDx=0;entryDy=0;" edge="1" parent="1" source="VNTb45fbrUXkGTs7Yfck-47" target="VNTb45fbrUXkGTs7Yfck-35">
          <mxGeometry relative="1" as="geometry" />
        </mxCell>
        <mxCell id="VNTb45fbrUXkGTs7Yfck-47" value="A" style="ellipse;whiteSpace=wrap;html=1;aspect=fixed;fontFamily=Times New Roman;fontSize=16;" vertex="1" parent="1">
          <mxGeometry x="916" y="175" width="80" height="80" as="geometry" />
        </mxCell>
        <mxCell id="VNTb45fbrUXkGTs7Yfck-48" value="$$src[i]$$" style="text;html=1;strokeColor=none;fillColor=none;align=center;verticalAlign=middle;whiteSpace=wrap;rounded=0;fontFamily=Times New Roman;fontSize=16;" vertex="1" parent="1">
          <mxGeometry x="739.75" y="442.87" width="60" height="30" as="geometry" />
        </mxCell>
        <mxCell id="VNTb45fbrUXkGTs7Yfck-49" value="$$bytes\_frequency$$" style="text;html=1;strokeColor=none;fillColor=none;align=center;verticalAlign=middle;whiteSpace=wrap;rounded=0;fontFamily=Times New Roman;fontSize=16;" vertex="1" parent="1">
          <mxGeometry x="654" y="349.37" width="60" height="30" as="geometry" />
        </mxCell>
        <mxCell id="VNTb45fbrUXkGTs7Yfck-50" value="$$bytes\_frequency[src[i]]$$" style="text;html=1;strokeColor=none;fillColor=none;align=center;verticalAlign=middle;whiteSpace=wrap;rounded=0;fontFamily=Times New Roman;fontSize=16;" vertex="1" parent="1">
          <mxGeometry x="672.76" y="529.87" width="60" height="30" as="geometry" />
        </mxCell>
        <mxCell id="VNTb45fbrUXkGTs7Yfck-51" value="$$bytes\_frequency$$" style="text;html=1;strokeColor=none;fillColor=none;align=center;verticalAlign=middle;whiteSpace=wrap;rounded=0;fontFamily=Times New Roman;fontSize=16;" vertex="1" parent="1">
          <mxGeometry x="925.13" y="316.62" width="60" height="30" as="geometry" />
        </mxCell>
        <mxCell id="VNTb45fbrUXkGTs7Yfck-52" value="$$k,$$" style="text;html=1;strokeColor=none;fillColor=none;align=center;verticalAlign=middle;whiteSpace=wrap;rounded=0;fontFamily=Times New Roman;fontSize=16;" vertex="1" parent="1">
          <mxGeometry x="942.1300000000001" y="277.62" width="60" height="30" as="geometry" />
        </mxCell>
        <mxCell id="VNTb45fbrUXkGTs7Yfck-53" style="edgeStyle=orthogonalEdgeStyle;rounded=0;orthogonalLoop=1;jettySize=auto;html=1;exitX=0.5;exitY=1;exitDx=0;exitDy=0;entryX=0.5;entryY=0;entryDx=0;entryDy=0;" edge="1" parent="1" source="VNTb45fbrUXkGTs7Yfck-54" target="VNTb45fbrUXkGTs7Yfck-44">
          <mxGeometry relative="1" as="geometry" />
        </mxCell>
        <mxCell id="VNTb45fbrUXkGTs7Yfck-54" value="&lt;span style=&quot;font-size: 16px;&quot;&gt;Вернуть значение &lt;br&gt;информационной &lt;br&gt;энтропии&lt;br&gt;&lt;/span&gt;" style="shape=process;whiteSpace=wrap;html=1;backgroundOutline=1;fontSize=14;size=0;fontFamily=Times New Roman;" vertex="1" parent="1">
          <mxGeometry x="858.39" y="679.62" width="193.5" height="65.5" as="geometry" />
        </mxCell>
        <mxCell id="VNTb45fbrUXkGTs7Yfck-55" value="$$j$$" style="text;html=1;strokeColor=none;fillColor=none;align=center;verticalAlign=middle;whiteSpace=wrap;rounded=0;fontFamily=Times New Roman;fontSize=16;" vertex="1" parent="1">
          <mxGeometry x="991.6300000000001" y="375.62" width="60" height="30" as="geometry" />
        </mxCell>
        <mxCell id="VNTb45fbrUXkGTs7Yfck-56" value="$$k \leq logs[j]$$" style="text;html=1;strokeColor=none;fillColor=none;align=center;verticalAlign=middle;whiteSpace=wrap;rounded=0;fontFamily=Times New Roman;fontSize=16;" vertex="1" parent="1">
          <mxGeometry x="925.14" y="412.62" width="60" height="30" as="geometry" />
        </mxCell>
      </root>
    </mxGraphModel>
  </diagram>
</mxfile>
